HIERARCHY
ROOT root
{
	OFFSET 0.000000 0.000000 0.000000
	CHANNELS 6 Xposition Yposition Zposition Zrotation Yrotation Xrotation
	JOINT lhip
	{
		OFFSET 0.058581 -0.082280 -0.017664
		CHANNELS 3 Zrotation Yrotation Xrotation
		JOINT lknee
		{
			OFFSET 0.043451 -0.386469 0.008037
			CHANNELS 3 Zrotation Yrotation Xrotation
			JOINT lankle
			{
				OFFSET -0.014790 -0.426874 -0.037428
				CHANNELS 3 Zrotation Yrotation Xrotation
				JOINT ltoe
				{
					OFFSET 0.041054 -0.060286 0.122042
					CHANNELS 3 Zrotation Yrotation Xrotation
					End Site
					{
						OFFSET 0.000000 0.000000 0.000000
					}
				}
			}
		}
	}
	JOINT rhip
	{
		OFFSET -0.060310 -0.090513 -0.013543
		CHANNELS 3 Zrotation Yrotation Xrotation
		JOINT rknee
		{
			OFFSET -0.043257 -0.383688 -0.004843
			CHANNELS 3 Zrotation Yrotation Xrotation
			JOINT rankle
			{
				OFFSET 0.019056 -0.420046 -0.034562
				CHANNELS 3 Zrotation Yrotation Xrotation
				JOINT rtoe
				{
					OFFSET -0.034840 -0.062106 0.130323
					CHANNELS 3 Zrotation Yrotation Xrotation
					End Site
					{
						OFFSET 0.000000 0.000000 0.000000
					}
				}
			}
		}
	}
	JOINT lowerback
	{
		OFFSET 0.004439 0.124404 -0.038385
		CHANNELS 3 Zrotation Yrotation Xrotation
		JOINT upperback
		{
			OFFSET 0.004488 0.137956 0.026820
			CHANNELS 3 Zrotation Yrotation Xrotation
			JOINT chest
			{
				OFFSET -0.002265 0.056032 0.002855
				CHANNELS 3 Zrotation Yrotation Xrotation
				JOINT lowerneck
				{
					OFFSET -0.013390 0.211636 -0.033468
					CHANNELS 3 Zrotation Yrotation Xrotation
					JOINT upperneck
					{
						OFFSET 0.010113 0.088937 0.050410
						CHANNELS 3 Zrotation Yrotation Xrotation
						End Site
						{
							OFFSET 0.000000 0.000000 0.000000
						}
					}
				}
				JOINT lclavicle
				{
					OFFSET 0.071702 0.114000 -0.018898
					CHANNELS 3 Zrotation Yrotation Xrotation
					JOINT lshoulder
					{
						OFFSET 0.122921 0.045205 -0.019046
						CHANNELS 3 Zrotation Yrotation Xrotation
						JOINT lelbow
						{
							OFFSET 0.255332 -0.015649 -0.022946
							CHANNELS 3 Zrotation Yrotation Xrotation
							JOINT lwrist
							{
								OFFSET 0.265709 0.012698 -0.007375
								CHANNELS 3 Zrotation Yrotation Xrotation
								End Site
								{
									OFFSET 0.000000 0.000000 0.000000
								}
							}
						}
					}
				}
				JOINT rclavicle
				{
					OFFSET -0.082954 0.112472 -0.023707
					CHANNELS 3 Zrotation Yrotation Xrotation
					JOINT rshoulder
					{
						OFFSET -0.113228 0.046853 -0.008472
						CHANNELS 3 Zrotation Yrotation Xrotation
						JOINT relbow
						{
							OFFSET -0.260127 -0.014369 -0.031269
							CHANNELS 3 Zrotation Yrotation Xrotation
							JOINT rwrist
							{
								OFFSET -0.269108 0.006794 -0.006027
								CHANNELS 3 Zrotation Yrotation Xrotation
								End Site
								{
									OFFSET 0.000000 0.000000 0.000000
								}
							}
						}
					}
				}
			}
		}
	}
}
MOTION
Frames: 16
Frame Time: 0.033333
-1.149992 0.681297 1.118865 9.205486 -0.553028 87.016965 5.621084 0.489736 -9.197767 -6.827564 -4.900815 28.692552 -4.684033 7.837338 2.985166 0.000000 -0.000000 0.000000 -2.957189 -4.029009 -6.766840 0.769245 0.015985 28.566051 7.652934 -7.002962 0.938068 0.000000 -0.000000 0.000000 0.563443 -0.025069 8.595449 0.661589 -0.904429 -2.008891 -0.411051 0.152041 1.949691 -1.030078 11.775987 -7.139544 0.445709 11.684305 2.190843 -18.561548 13.656289 -3.440108 -33.622348 -3.093431 -3.254281 32.805685 -43.783763 -29.696447 18.168824 -11.453443 -27.256938 19.764475 -10.002372 -5.376140 31.722634 4.578692 -2.140613 -32.049901 25.667253 -36.168816 -8.023321 7.091672 -17.826576 
-1.161630 0.682841 1.100810 8.859779 -0.373699 86.337812 3.037627 -0.492390 -8.970766 -8.518323 -5.171542 30.635620 -4.508610 4.804374 4.120973 0.000000 -0.000000 0.000000 -0.580025 -2.318934 -7.673239 0.649331 -0.517060 31.330475 5.758507 -5.339271 3.693572 0.000000 -0.000000 0.000000 0.531530 0.194034 9.313613 1.208498 -0.724921 -0.881849 -0.487610 -0.165635 1.521703 -0.815527 12.368099 -7.519512 -0.200576 11.462168 2.324310 -23.032545 11.805598 -2.701983 -40.043045 -2.289156 -0.492296 30.917207 -40.248827 -26.618419 15.870768 -9.714105 -26.359269 24.340079 -9.132361 -4.359926 38.779184 4.828070 1.073830 -32.657007 25.017483 -36.741027 -7.734585 5.155691 -21.852810 
-1.173488 0.684240 1.071049 7.915322 -0.008627 85.144562 1.457925 -0.583499 -8.080877 -8.919765 -3.381937 31.736344 -4.100821 4.367117 4.149990 0.000000 -0.000000 0.000000 1.476448 -0.623193 -8.484585 -0.931941 -2.170474 34.649628 2.593764 -6.983230 5.232535 0.000000 -0.000000 0.000000 0.585351 -0.098897 11.036907 1.500004 -0.292861 -0.412816 -0.541438 -0.192973 1.116112 -0.350322 13.143980 -8.915416 -0.212790 12.284671 3.720377 -27.530038 10.236349 -1.538617 -46.232330 -1.913782 1.631759 30.407771 -37.578466 -25.654447 15.112734 -7.679442 -28.332412 29.163741 -7.198821 -2.874747 44.872956 5.155238 4.572739 -32.267373 23.999439 -37.385919 -7.836320 3.408106 -26.603618 
-1.184963 0.685533 1.029666 7.400327 0.286402 84.605220 -0.063802 -1.154033 -8.470184 -8.351374 -2.296951 34.620410 -2.914769 6.176628 -0.855793 0.000000 -0.000000 0.000000 2.859101 0.847342 -9.751853 -2.007524 -2.510415 38.734141 1.639423 -7.634558 1.452753 0.000000 -0.000000 0.000000 0.595389 -0.390884 11.708567 1.644824 -0.156022 -0.025938 -0.684729 -0.484035 1.214538 0.231289 13.521020 -10.572182 -0.478052 12.365375 4.796881 -32.131439 8.753950 -1.079744 -51.677692 -1.757329 4.364580 30.582424 -35.622034 -26.390891 16.530483 -6.187746 -30.084490 33.552632 -4.841214 -2.307264 50.748317 5.062562 8.590957 -30.576973 22.825699 -36.959929 -7.037415 1.883629 -30.794338 
-1.196920 0.688595 0.978449 7.122758 0.952302 84.685608 -0.370371 -1.221209 -10.613908 -7.433548 -1.767730 41.949077 3.445388 8.326498 -17.401116 0.000000 -0.000000 0.000000 4.016971 2.594355 -12.040427 -1.031335 -1.677951 46.667093 2.968055 -7.028326 -12.748984 0.000000 -0.000000 0.000000 0.746911 -1.034970 12.637908 1.993719 0.001229 -1.293010 -0.810288 -0.847357 2.180826 1.641670 15.514025 -13.074727 -1.880645 12.144410 6.260048 -33.302414 8.209917 -1.113476 -59.687639 -2.911990 5.927148 30.316552 -32.996043 -23.105605 15.820735 -4.398807 -30.418220 34.868561 -3.179329 -2.404038 58.584241 5.763127 12.227983 -28.078607 21.351265 -33.081931 -4.522656 0.445318 -33.135640 
-1.208421 0.695068 0.927969 6.805470 1.036116 83.907808 0.526966 -2.065204 -11.537768 -8.876759 -1.520555 46.602800 6.058102 11.326568 -29.376923 0.000000 -0.000000 0.000000 4.105386 3.237032 -13.963351 1.132348 -1.552293 53.539570 1.222182 -8.489804 -24.417890 0.000000 -0.000000 0.000000 0.542657 -0.877148 14.729031 1.920652 0.269661 -1.543927 -0.745481 -1.267869 2.696564 1.976026 17.324525 -16.592848 -2.544713 11.110940 7.923826 -32.074287 4.946913 -0.901483 -66.208402 -4.047807 7.850037 28.626006 -29.699538 -22.098079 17.841289 -1.851450 -33.604965 34.711427 -0.079789 -1.697959 64.252757 6.496326 15.343436 -25.377598 20.937795 -31.647439 -4.239164 -0.367413 -35.579421 
-1.218052 0.702396 0.900970 6.981744 0.740078 83.772845 1.075484 -1.598928 -12.849400 -8.898787 -0.325090 49.023227 7.700804 13.230813 -34.666141 0.000000 -0.000000 0.000000 3.698708 1.510762 -16.561377 0.731861 -4.527438 58.145226 0.534978 -10.098848 -28.734404 0.000000 -0.000000 0.000000 0.067400 -0.631263 16.180753 1.834186 -0.152666 -1.941306 -0.304192 -1.042320 2.427850 1.345495 16.747028 -17.427364 -2.131979 11.186137 6.432374 -31.106511 1.750461 0.276142 -66.968092 -5.706408 7.671723 26.741264 -27.510727 -22.426704 18.719421 -0.225375 -36.177655 33.863010 2.433825 -0.134096 63.126652 7.168312 15.341567 -25.275992 21.978418 -25.822268 -5.114231 1.154586 -29.307257 
-1.227804 0.704355 0.902335 6.602714 0.541752 83.476681 2.120975 0.396701 -11.840334 -9.394117 -0.616728 47.308419 7.191033 12.557891 -34.632977 0.000000 -0.000000 0.000000 3.529221 0.328146 -15.987471 1.673938 -4.723538 57.115374 0.408887 -9.947953 -28.274066 0.000000 -0.000000 0.000000 -0.478479 -0.547625 16.536842 1.663066 -0.267069 -1.282594 -0.106144 -1.175391 1.900026 1.650127 16.690372 -18.018872 -2.214020 10.947978 5.481911 -30.873794 1.432582 -0.246013 -62.434448 -6.429298 5.236594 28.234121 -26.766753 -25.237154 14.610845 -1.552541 -34.676466 32.720420 2.691118 -0.909697 59.208959 8.299413 12.061266 -26.680513 21.300375 -33.530638 -2.411858 0.748296 -34.956485 
-1.235650 0.702368 0.930857 7.656399 0.542321 84.443427 3.213046 0.643570 -10.287870 -10.646616 -2.866936 41.637137 5.075846 10.591785 -28.688883 0.000000 -0.000000 0.000000 3.142539 -1.427051 -13.813929 3.249429 -3.903772 50.254158 1.232627 -8.776695 -23.112907 0.000000 -0.000000 0.000000 -0.258867 -0.710458 14.402201 1.587141 -0.959596 -1.947578 -0.270593 -1.031550 2.116380 2.328309 15.640045 -16.358075 -1.265634 10.538742 5.692177 -29.881787 3.356042 -1.871346 -56.200619 -7.712626 2.617271 28.944241 -25.776894 -29.702944 18.094574 0.531624 -34.586887 31.021130 0.212828 -2.916315 53.261736 9.423722 8.418946 -27.905326 18.519319 -36.680056 -5.771123 -1.373777 -32.832665 
-1.244160 0.697484 0.981112 9.524139 0.585289 85.397187 4.101007 0.311921 -7.912847 -10.522752 -5.495955 33.411154 0.485855 7.922945 -15.320494 0.000000 -0.000000 0.000000 2.560109 -3.148044 -10.902145 3.867375 -4.821366 40.724543 3.748643 -6.901100 -9.987820 0.000000 -0.000000 0.000000 -0.219292 -0.420492 11.135910 1.579530 -1.627772 -1.128640 -0.064325 -0.937399 1.564131 1.888252 13.535872 -14.422033 1.027309 10.111150 5.974100 -27.577201 4.204856 -2.569164 -49.680642 -9.464139 -0.361319 30.179526 -23.677271 -35.154807 19.515713 2.348562 -34.006995 28.773025 -1.985914 -3.948380 45.829417 9.116322 4.196083 -29.103721 16.200990 -37.884863 -8.081838 -1.406855 -27.714057 
-1.252227 0.692753 1.040156 10.194309 0.430042 86.833313 5.233177 0.435740 -5.922229 -7.685932 -5.181088 22.752181 0.061383 5.541065 1.100337 0.000000 -0.000000 0.000000 0.819810 -4.658729 -8.434005 4.712481 -4.531623 29.605502 10.154790 -4.145204 10.429307 0.000000 -0.000000 0.000000 -0.611821 -0.301837 7.367361 1.441432 -1.775361 0.038842 0.695026 -0.845272 0.809022 1.093569 11.788075 -12.233709 2.107171 10.444168 4.427006 -24.955959 5.801573 -2.976322 -42.129374 -11.095225 -3.712311 30.706718 -21.935598 -40.388876 20.229269 1.356712 -31.692505 25.179553 -4.001280 -4.337290 38.293662 9.323453 0.343354 -28.994558 14.237723 -41.754006 -9.918368 -1.795608 -25.908061 
-1.259582 0.688422 1.093520 10.158189 0.544636 87.553856 6.862655 1.507304 -3.750103 -7.002455 -4.355570 14.558238 -11.184054 8.403218 9.240288 0.000000 -0.000000 0.000000 -0.717467 -5.287828 -5.128104 4.696259 -2.445800 19.023483 14.675468 -4.281886 16.827893 0.000000 -0.000000 0.000000 -0.028641 0.118047 4.907270 1.184543 -2.602059 0.655786 0.784639 -0.328475 0.070515 -0.054078 10.842325 -9.676071 3.238974 10.970371 2.054922 -20.617432 6.123542 -4.012247 -35.326564 -9.702323 -6.929636 31.573475 -21.344826 -42.979559 19.773058 -1.201853 -28.351620 20.064855 -5.072981 -4.795964 32.233560 9.949182 -4.858845 -29.418292 12.110669 -44.882276 -10.519836 -2.253976 -25.042902 
-1.265933 0.686334 1.131909 9.381361 0.008305 87.497398 7.964735 2.614795 -2.673019 -6.215836 -3.325200 12.411195 -9.927045 10.061164 5.572688 0.000000 -0.000000 0.000000 -3.196234 -6.745903 -4.282427 2.893350 -3.209332 17.014341 14.361332 -7.751735 11.513222 0.000000 -0.000000 0.000000 0.310630 0.410847 4.112861 0.331185 -2.378047 -0.307843 0.597707 -0.207917 0.636967 0.025662 10.492481 -7.873518 3.342950 11.190592 0.824803 -15.535997 6.565195 -4.749498 -26.922208 -8.804161 -11.191490 30.442584 -21.526057 -42.702813 21.460651 -5.194776 -24.906862 14.486940 -5.402604 -5.291098 25.925568 9.680321 -8.916353 -28.970441 12.068873 -46.377415 -12.123731 -1.436876 -24.328352 
-1.272213 0.687036 1.154493 9.376472 -0.115196 86.928056 10.024791 3.122174 -2.124276 -6.500827 -6.750216 13.345507 -11.111126 9.968723 2.595452 0.000000 -0.000000 0.000000 -5.979728 -7.510026 -2.523686 2.594777 -1.895571 16.347548 13.280511 -9.182691 7.551034 0.000000 -0.000000 0.000000 0.841733 0.193949 4.811383 -0.174021 -2.583568 -1.440332 0.540278 0.129349 0.669047 0.239640 10.345958 -6.495808 3.226568 11.078123 1.282714 -10.766311 6.032640 -5.459594 -18.195272 -6.393290 -13.503518 29.356403 -22.853598 -41.517306 21.158074 -7.617465 -23.172934 9.662600 -4.723230 -6.476016 17.900591 8.178554 -11.996836 -28.214422 13.386595 -45.946723 -13.153331 0.733775 -22.184189 
-1.279048 0.689690 1.163713 9.138492 -0.217056 86.864486 12.459123 3.475956 -2.666123 -7.144537 -10.208963 15.455893 -11.609015 9.824851 1.386341 0.000000 -0.000000 0.000000 -8.937927 -8.152256 -2.551487 2.973835 0.350083 17.980420 12.217734 -10.996850 6.604926 0.000000 -0.000000 0.000000 0.952732 0.174481 4.799921 -0.151583 -2.513203 -2.112399 0.552865 0.307490 0.757631 0.459715 10.533900 -5.740539 2.965452 11.118371 2.207093 -5.943551 5.850637 -6.329605 -10.129758 -5.192185 -15.993275 28.302860 -23.778540 -39.776001 20.809654 -10.753428 -19.230881 5.589301 -4.109500 -7.637101 8.717071 7.390325 -15.252832 -27.427944 15.184549 -43.661184 -13.491643 3.822738 -17.335717 
-1.285559 0.690580 1.163336 8.553375 -0.477642 86.410114 14.781444 4.093624 -2.330924 -7.727302 -12.987817 17.398208 -11.752583 10.031548 0.827317 0.000000 -0.000000 0.000000 -12.022871 -8.740197 -1.961924 2.984897 2.807145 19.279831 11.778147 -12.329307 7.607266 0.000000 -0.000000 0.000000 0.999943 0.480584 4.248448 -0.240764 -2.354014 -1.793450 0.465492 0.456494 0.786258 0.170102 10.386355 -3.622301 2.781293 11.202134 1.738856 -1.016207 5.254925 -7.407910 -2.886803 -4.103399 -18.187276 28.388351 -25.193935 -37.805376 19.629961 -11.975854 -16.449270 0.780269 -3.425834 -8.678086 1.781504 7.251613 -18.223837 -28.491048 17.742729 -41.514003 -12.270831 5.072447 -13.511127 
